<svg fill="gray" width="64" height="64" viewBox="0 0 32 32" xmlns="http://www.w3.org/2000/svg" stroke="gray" stroke-width="0" transform="scale(-1 1)"><g/><g stroke-linecap="round" stroke-linejoin="round" stroke="#CCC" stroke-width=".064"/><path d="M29.47 21.827c3.371-5.839.556-13.776-6.243-17.701S8.184 1.752 4.813 7.591c-.326.564-.551 1.149-.764 1.747 3.574-4.909 9.64-6.806 14.176-4.187 4.918 2.84 6.156 9.875 2.771 15.738-1.613 2.794-3.985 4.806-6.561 5.848 5.952 1.826 12.211-.019 15.035-4.911zm-9.069-13.33c-2.954-4.433-9.359-4.573-14.273-.339s-6.503 11.26-3.549 15.693c.286.429.618.783.963 1.132-2.244-4.316-1.598-9.712 1.681-12.537 3.555-3.063 8.826-1.938 11.792 2.514a11.67 11.67 0 0 1 1.93 6.975c3.187-4.189 3.931-9.724 1.457-13.438zM5.244 13.646c-3.048 3.029-2.986 8.872.071 12.85s8.007 4.747 11.055 1.717c-2.939 1.85-5.296 1.641-8.036-1.305-2.462-2.648-1.525-7.663 1.536-10.705 1.459-1.45 3.19-2.235 4.847-2.352-2.599-2.666-6.92-2.744-9.474-.206z" stroke="none"/></svg>